<svg width="512" height="512" viewBox="0 0 512 512" fill="none" xmlns="http://www.w3.org/2000/svg">
<g clip-path="url(#clip0_102_163)">
<mask id="mask0_102_163" style="mask-type:alpha" maskUnits="userSpaceOnUse" x="0" y="2" width="512" height="512">
<rect y="2" width="512" height="512" rx="128" fill="url(#paint0_linear_102_163)"/>
</mask>
<g mask="url(#mask0_102_163)">
<rect width="512" height="512" rx="128" fill="url(#paint1_linear_102_163)"/>
</g>
<path d="M166 361.48C147.893 361.48 131.747 357.373 117.56 349.16C103.56 340.947 92.5467 329.093 84.52 313.6C76.68 298.107 72.76 279.533 72.76 257.88C72.76 236.787 76.5867 218.493 84.24 203C91.8933 187.32 102.813 175.187 117 166.6C131.187 158.013 147.8 153.72 166.84 153.72C192.787 153.72 212.947 160.16 227.32 173.04C241.88 185.733 251.213 203.933 255.32 227.64L211.08 229.32C208.84 216.813 203.987 207.107 196.52 200.2C189.053 193.107 179.16 189.56 166.84 189.56C156.2 189.56 147.147 192.36 139.68 197.96C132.213 203.56 126.52 211.493 122.6 221.76C118.68 232.027 116.72 244.067 116.72 257.88C116.72 271.88 118.68 284.013 122.6 294.28C126.707 304.36 132.493 312.107 139.96 317.52C147.427 322.933 156.293 325.64 166.56 325.64C180 325.64 190.36 321.907 197.64 314.44C205.107 306.787 209.773 296.24 211.64 282.8L256.16 284.48C253.547 300.72 248.413 314.533 240.76 325.92C233.107 337.307 223.027 346.08 210.52 352.24C198.2 358.4 183.36 361.48 166 361.48ZM282.865 357C282.865 340.013 285.105 325.267 289.585 312.76C294.252 300.253 301.718 289.053 311.985 279.16C322.438 269.267 336.252 259.84 353.425 250.88C362.572 246.213 369.758 242.107 374.985 238.56C380.398 234.827 384.225 231.093 386.465 227.36C388.705 223.627 389.825 219.24 389.825 214.2C389.825 209.347 388.705 205.147 386.465 201.6C384.412 197.867 381.332 194.973 377.225 192.92C373.118 190.68 367.985 189.56 361.825 189.56C351.745 189.56 343.718 192.547 337.745 198.52C331.958 204.307 328.318 212.8 326.825 224L283.145 221.48C285.012 200.387 292.665 183.867 306.105 171.92C319.732 159.787 338.118 153.72 361.265 153.72C376.572 153.72 389.545 156.24 400.185 161.28C411.012 166.32 419.225 173.32 424.825 182.28C430.612 191.24 433.505 201.693 433.505 213.64C433.505 224.093 431.732 232.867 428.185 239.96C424.825 247.053 419.318 253.587 411.665 259.56C404.012 265.533 393.932 271.88 381.425 278.6C365.372 287.187 353.518 295.12 345.865 302.4C338.212 309.493 334.105 315.747 333.545 321.16H433.505V357H282.865Z" fill="white"/>
</g>
<defs>
<linearGradient id="paint0_linear_102_163" x1="0" y1="2" x2="512" y2="514" gradientUnits="userSpaceOnUse">
<stop stop-color="#FF6363"/>
<stop offset="1" stop-color="#D72A2A"/>
</linearGradient>
<linearGradient id="paint1_linear_102_163" x1="0" y1="0" x2="512" y2="512" gradientUnits="userSpaceOnUse">
<stop stop-color="#686C73"/>
<stop offset="1" stop-color="#1A1F23"/>
</linearGradient>
<clipPath id="clip0_102_163">
<rect width="512" height="512" fill="white"/>
</clipPath>
</defs>
</svg>
